# xmcd
# 
# Track frame offsets:
#     150
#     21592
#     37905
#     59775
#     80800
#     96790
#     115950
#     131937
#     151575
#     168965
#     187320
#     207525
#     227820
#     245032
#     265317
#     284925
#     299325
# 
# Disc length: 4251
# 
# Revision: 7
# Processed by: cddbd v1.5.2PL0 Copyright (c) Steve Scherf et al.
# Submitted via: BonkEnc v1.0
# 
DISCID=15109911
DTITLE=MARIAH CAREY - Best Ballads
DYEAR=0
DGENRE=Pop
TTITLE0=One Sweet Day (feat. Boyz 2 Men)
TTITLE1=Without You
TTITLE2=I Don't Wanna Cry
TTITLE3=If It's Over
TTITLE4=Vision Of Love
TTITLE5=So Blessed
TTITLE6=Open Arms
TTITLE7=Endless Love (feat. L.Vandross)
TTITLE8=Love Takes Time
TTITLE9=Forever
TTITLE10=Anytime You Need A Friend
TTITLE11=Can't Let Go
TTITLE12=Never Forget You
TTITLE13=And You Don't Remember
TTITLE14=Hero
TTITLE15=I Am Free
TTITLE16=I'll Be There (feat. Trey Lorenz)
EXTD=
EXTT0=
EXTT1=
EXTT2=
EXTT3=
EXTT4=
EXTT5=
EXTT6=
EXTT7=
EXTT8=
EXTT9=
EXTT10=
EXTT11=
EXTT12=
EXTT13=
EXTT14=
EXTT15=
EXTT16=
PLAYORDER=
